<?xml version="1.0" encoding="utf-8"?>
<!-- Generator: Adobe Illustrator 25.2.0, SVG Export Plug-In . SVG Version: 6.00 Build 0)  -->
<svg version="1.1" id="Layer_1" xmlns="http://www.w3.org/2000/svg" xmlns:xlink="http://www.w3.org/1999/xlink" x="0px" y="0px"
	 viewBox="0 0 693 846" style="enable-background:new 0 0 693 846;" xml:space="preserve">
<style type="text/css">
	.st0{fill:#58A47F;stroke:#000000;stroke-width:5;stroke-miterlimit:10;}
	.st1{font-family:'Montserrat-Black';}
	.st2{font-size:566.8671px;}
	.st3{fill:#CC6734;}
</style>
<text transform="matrix(0.9037 -0.4281 0.4281 0.9037 236.4603 596.9057)" class="st0 st1 st2">S</text>
<path class="st3" d="M14.93,184.76c0,0.76-0.65,1.46-2,2.16c-3.24,1.62-5.24,4.22-8.54,10.86c-3.62,7.19-4.22,10.54-2.76,14.91
	c1.57,4.81,3.35,6.32,13.02,11.19l8.81,4.43l30.37,32.69c16.7,18,31.23,33.61,32.32,34.69c1.78,1.89,2,2.49,3.13,8.92
	c0.65,3.84,3.08,17.35,5.35,30.15c5.24,29.67,15.4,86.89,17.56,99.16c0.92,5.19,4.32,24.43,7.57,42.69
	c6.48,36.58,7.3,41.07,13.51,76.47c2.38,13.35,4.43,24.86,4.59,25.51c0.27,1.13,0.11,1.24-2,1.24c-4.38,0-20.48,5.4-29.29,9.84
	c-24.75,12.43-37.4,34.48-34.91,60.96c1.68,17.67,8.48,35.99,21.56,57.88l1.13,1.95l-2.92,2.22c-6.05,4.59-11.62,11.94-14.86,19.72
	c-2.59,6.32-3.46,11.83-3.19,20.32c0.22,6.48,0.49,8,2,12.48c5.3,15.73,16.86,26.86,32.75,31.67c4.32,1.3,5.78,1.46,12.7,1.51
	c6.43,0,8.65-0.22,12.21-1.19c17.83-4.81,30.75-18.05,35.18-36.1c1.35-5.62,1.24-16.48-0.27-22.21c-0.65-2.43-1.68-5.51-2.27-6.92
	c-0.59-1.41-1.08-2.65-1.08-2.76c0-0.11,61.77-0.22,137.31-0.22c130.56,0,137.31,0.05,136.94,0.97
	c-7.08,16.48-5.84,33.07,3.57,47.07c8.81,13.19,22.32,20.75,38.31,21.51c18.54,0.86,36.31-9.67,44.8-26.59
	c3.13-6.32,4.43-11.35,4.76-18.75c0.38-7.78-0.38-13.02-2.81-19.51l-1.73-4.7h16.37h16.43v-7.3v-7.3h-22.05h-21.99l-3.24-2.43
	c-4.11-3.13-10.7-6.38-16.21-7.94c-3.67-1.08-5.57-1.24-12.7-1.24c-7.08,0-9.02,0.22-12.65,1.24c-5.35,1.57-12.16,4.92-16.16,8
	l-3.08,2.38H301.87H153.27l-2.81-2.16c-4-3.03-11.35-6.75-16.1-8.11c-5.67-1.62-16-2.05-22.1-0.86c-2.54,0.43-4.65,0.81-4.7,0.7
	c-0.7-0.7-7.35-12.54-9.73-17.24c-12.37-24.7-15.13-45.88-7.94-61.5c6.05-13.29,20.1-23.4,40.91-29.4l4.76-1.41h71.55h71.55v-7.3
	v-7.3h-62.9h-62.85l-0.38-1.73c-0.16-0.92-0.27-1.73-0.22-1.78c0.11-0.05,44.04-0.38,97.7-0.76c53.66-0.38,124.78-0.86,158.06-1.13
	s103.92-0.76,156.98-1.13c53.07-0.32,96.51-0.7,96.62-0.76c0.05-0.05,5.24-44.69,11.46-99.22s11.83-103.48,12.43-108.83
	c5.35-46.47,6.92-61.06,6.48-61.33c-0.27-0.16-18.91-2.22-41.45-4.54c-22.53-2.32-52.36-5.4-66.36-6.81
	c-13.94-1.46-51.55-5.35-83.49-8.65c-124.02-12.81-215.02-22.21-253.98-26.21c-103.27-10.7-133.42-13.78-134.18-13.78
	c-0.54,0-1.84-1.51-3.08-3.46l-2.22-3.51L81.5,221.61l-25.78-14.64l-0.97-2.43c-1.68-3.94-4.43-5.89-18.16-12.59
	c-11.13-5.4-13.24-6.27-16.32-6.54c-2-0.22-4-0.7-4.49-1.08C15.04,183.68,14.93,183.73,14.93,184.76z M74.42,234.26l20.43,11.62
	l0.32,2.86c0.92,8.11,4,39.02,3.84,39.12c-0.11,0.11-12.1-12.65-26.64-28.32l-26.53-28.53l2.05-2.22c1.13-1.24,2.59-3.3,3.24-4.54
	c0.81-1.62,1.41-2.16,2-1.95C53.62,222.53,63.18,227.88,74.42,234.26z M128.41,252.09c4.32,0.43,14.16,1.41,21.89,2.22
	c7.73,0.76,14.21,1.57,14.43,1.78c0.16,0.16,0.97,9.67,1.78,21.13c0.76,11.46,1.89,27.61,2.43,35.88
	c0.59,8.32,1.03,15.13,0.92,15.18c-0.05,0.05-1.19,0-2.54-0.16l-2.49-0.22l-22.91-36.53c-12.65-20.1-23.51-37.45-24.21-38.58
	l-1.24-2.05l2.05,0.27C119.65,251.17,124.09,251.66,128.41,252.09z M202.71,259.71c14,1.41,25.51,2.65,25.67,2.76
	c0.27,0.22,4.27,70.03,4,70.36c-0.27,0.27-54.53-3.84-54.85-4.22c-0.16-0.16-1.35-15.67-2.59-34.37
	c-1.24-18.75-2.38-34.86-2.54-35.88l-0.27-1.84l2.59,0.32C176.13,257.01,188.77,258.31,202.71,259.71z M125.49,292.51
	c11.62,18.48,20.86,33.72,20.59,33.83c-0.76,0.27-35.18-2.22-35.61-2.59c-0.27-0.27-6.92-62.69-6.92-65.12
	c0-0.27,0.16-0.32,0.43-0.11C104.2,258.74,113.87,274.03,125.49,292.51z M267.56,266.47c14.86,1.51,27.13,2.86,27.24,2.97
	c0.32,0.32,3.46,67.77,3.13,68.09c-0.27,0.32-57.55-3.84-57.88-4.16c-0.16-0.11-0.97-13.83-1.89-30.48
	c-0.92-16.64-1.84-32.42-2-35.07l-0.38-4.81l2.38,0.32C239.46,263.55,252.7,264.9,267.56,266.47z M330.52,272.9
	c14.43,1.46,27.24,2.81,28.53,2.97l2.27,0.32v33.23v33.23l-3.35-0.32c-1.89-0.22-14.27-1.13-27.61-2.11
	c-13.29-0.97-24.32-1.89-24.48-2.11c-0.27-0.27-3.4-59.98-3.46-65.93c0-1.57,0.22-2,0.97-2
	C303.87,270.19,316.09,271.38,330.52,272.9z M398.17,279.92c14.43,1.51,26.59,2.7,26.91,2.7c0.54,0,0.59,7.03,0.27,31.99
	c-0.22,17.62-0.43,32.15-0.54,32.32c-0.11,0.16-4.27,0-9.29-0.38c-4.97-0.38-15.78-1.19-23.94-1.78c-8.16-0.59-16.59-1.24-18.7-1.41
	l-3.84-0.32l-0.38-32.64c-0.22-17.94-0.27-32.8-0.11-33.07s0.97-0.38,1.78-0.27C371.15,277.17,383.69,278.46,398.17,279.92z
	 M450.86,285.32c8.54,0.86,20.43,2.11,26.37,2.7c5.94,0.59,11.56,1.24,12.43,1.35l1.62,0.27l-0.16,4.43
	c-0.11,2.49-0.59,16.32-1.13,30.8c-0.54,14.48-1.08,26.53-1.3,26.7c-0.38,0.43-55.61-3.57-56.15-4.05
	c-0.22-0.22,0.38-62.58,0.59-63.71C433.24,283.54,435.89,283.76,450.86,285.32z M529.06,293.43c14.54,1.46,26.48,2.76,26.59,2.86
	c0.05,0.05-0.32,7.78-0.86,17.13c-0.54,9.35-1.3,22.91-1.68,30.1c-0.59,11.24-0.81,13.13-1.51,13.08
	c-5.57-0.16-54.69-4.11-54.96-4.38c-0.32-0.38,1.03-44.58,1.73-56.52l0.32-5.57l2,0.27C501.77,290.62,514.52,291.97,529.06,293.43z
	 M592.88,299.97c15.18,1.57,27.72,2.97,27.94,3.13c0.32,0.32-4.65,57.71-5.03,58.09c-0.27,0.22-55.71-3.89-55.98-4.22
	c-0.11-0.11,0.54-13.13,1.46-28.96c0.86-15.83,1.62-29.24,1.62-29.78c0-0.7,0.38-1.03,1.24-1.03
	C564.78,297.21,577.74,298.46,592.88,299.97z M646.64,305.59c6.97,0.7,18.1,1.84,24.75,2.49c6.59,0.7,12.27,1.41,12.54,1.57
	c0.54,0.32-5.51,55.39-6.11,55.98c-0.32,0.32-53.99-3.51-54.36-3.89c-0.11-0.11,0.92-13.02,2.32-28.69
	c1.35-15.67,2.49-28.75,2.49-28.96c0-0.27,1.3-0.32,2.86-0.16C632.65,304.13,639.67,304.83,646.64,305.59z M132.73,332.88
	c19.56,1.35,18.97,1.24,20.05,3.13c0.49,0.81,5.13,8.27,10.38,16.59l9.51,15.13l1.35,18.91c0.7,10.38,1.3,18.97,1.24,19.02
	c-0.27,0.22-53.34-2.92-53.61-3.13c-0.86-0.86-8-44.04-9.19-55.71c-1.78-17.35-1.95-15.78,1.51-15.35
	C115.49,331.64,123.98,332.28,132.73,332.88z M208.28,338.5c15.62,1.13,24.1,2,24.37,2.38c0.43,0.76,4.16,67.55,3.78,67.93
	c-0.43,0.38-21.24-0.92-21.56-1.35c-0.16-0.22-8.27-13.13-18.1-28.69l-17.78-28.32l-0.43-3.78c-0.22-2.11-0.38-5.3-0.38-7.13
	l-0.05-3.3l3.13,0.27C182.93,336.61,195.15,337.53,208.28,338.5z M270.69,343.09c15.08,1.13,27.56,2.16,27.67,2.32
	c0.11,0.11,0.86,13.08,1.57,28.8c0.76,15.78,1.51,30.8,1.68,33.45l0.38,4.81l-6.97-0.32c-15.08-0.7-50.69-2.65-50.85-2.81
	c-0.05-0.05-3.89-66.14-3.89-67.93C240.27,340.82,240.27,340.82,270.69,343.09z M334.03,347.79c14.86,1.08,27.07,2,27.07,2.05
	c0.05,0.05,0.22,14.81,0.43,32.86l0.38,32.86h-2.59c-3.35,0-43.88-2.11-47.55-2.49l-2.86-0.27v-2.54c0-1.41-0.59-14.97-1.35-30.1
	c-1.46-29.61-1.57-34.31-0.92-34.31C306.85,345.85,319.17,346.71,334.03,347.79z M398.6,352.66c14.37,1.03,26.21,1.95,26.26,2
	c0,0.05-0.16,12.37-0.38,27.4s-0.43,29.56-0.43,32.32l-0.05,4.97l-2.81-0.27c-1.57-0.16-12.7-0.76-24.75-1.35s-23.18-1.24-24.7-1.41
	l-2.86-0.27v-32.86v-32.8l1.78,0.16C371.59,350.66,384.18,351.58,398.6,352.66z M463.88,357.41c13.46,1.03,24.59,1.89,24.7,2
	c0.22,0.22-1.95,62.79-2.16,63.06c-0.11,0.11-6.54-0.22-14.37-0.65c-7.84-0.43-20.16-1.13-27.34-1.46l-13.13-0.7v-14.86
	c0-8.21,0.16-22.75,0.38-32.37l0.32-17.45l3.57,0.32C437.78,355.52,450.43,356.44,463.88,357.41z M526.95,362.06
	c12.48,0.92,23.18,1.68,23.78,1.78c1.03,0.11,1.08,0.43,0.92,4.7c-0.54,12.32-3.24,56.8-3.51,57.07s-53.93-2.43-54.26-2.7
	c-0.05-0.05,0.32-12.97,0.92-28.69c0.59-15.78,1.08-29.94,1.08-31.56v-2.92l4.22,0.38C502.36,360.28,514.46,361.2,526.95,362.06z
	 M589.09,366.71c14.27,1.03,25.99,2,26.1,2.05c0.05,0.11-0.7,9.89-1.78,21.72c-1.03,11.83-2.16,24.37-2.43,27.78
	c-0.32,3.4-0.7,7.3-0.86,8.59l-0.32,2.38l-7.62-0.38c-4.22-0.22-16.05-0.86-26.32-1.4c-10.27-0.59-18.97-1.08-19.4-1.08
	c-0.86,0-0.92,2.59,1.3-36.75c0.76-12.65,1.35-23.4,1.35-23.94C559.1,364.44,558.72,364.44,589.09,366.71z M651.24,371.25
	c13.08,0.92,24.26,1.78,24.91,1.89l1.08,0.22l-1.19,10.43c-0.65,5.73-2.11,18.21-3.13,27.72c-2.7,23.78-2.05,21.13-5.08,20.91
	c-1.41-0.05-13.19-0.7-26.21-1.41c-13.02-0.7-23.83-1.46-23.99-1.62c-0.32-0.32,4.54-58.31,5.03-59.66
	c0.16-0.49,0.86-0.65,2.49-0.43C626.43,369.46,638.16,370.33,651.24,371.25z M189.42,394.43c4.22,6.65,7.62,12.16,7.62,12.27
	c0,0.38-13.73-0.43-14.1-0.81c-0.22-0.16-0.65-4.81-0.97-10.32c-0.38-5.51-0.76-10.97-0.92-12.16c-0.22-1.46-0.16-2,0.22-1.62
	C181.58,382.05,185.26,387.78,189.42,394.43z M142.46,411.18c10.27,0.59,21.89,1.24,25.83,1.46c4.54,0.22,7.3,0.59,7.46,0.97
	c0.32,1.03,5.13,72.3,4.86,72.57c-0.32,0.32-43.99-0.65-44.37-0.97c-0.22-0.27-13.24-73.17-13.24-74.36c0-0.38,0.16-0.7,0.43-0.7
	C123.65,410.16,132.19,410.64,142.46,411.18z M196.66,414.26l5.35,0.32l2.81,4.38c1.57,2.43,10.21,16.16,19.24,30.53l16.37,26.1
	l0.32,6.27l0.32,6.27l-11.62-0.32c-6.38-0.22-18.27-0.54-26.37-0.7c-14.37-0.38-14.75-0.43-14.97-1.51
	c-0.11-0.65-1.19-16.1-2.43-34.37c-1.19-18.27-2.32-34.31-2.49-35.61l-0.32-2.32l4.27,0.32
	C189.47,413.78,193.74,414.05,196.66,414.26z M236.92,416.37c0.22,0.16,1.68,23.94,1.73,27.24c0,1.62-1.24-0.11-8.97-12.43
	c-4.97-7.84-9.13-14.59-9.29-14.97c-0.22-0.59,1.24-0.65,8.05-0.38C233.03,416.05,236.81,416.32,236.92,416.37z M271.88,418.26
	c26.86,1.41,30.05,1.62,30.26,2.38c0.11,0.32,0.81,14.81,1.57,32.21c0.81,17.4,1.57,32.8,1.73,34.21l0.27,2.59l-18-0.38
	c-9.89-0.16-18.97-0.49-20.1-0.7c-2.11-0.32-2.16-0.49-11.46-15.24l-9.35-14.86l-1.13-19.29c-0.59-10.59-1.08-19.99-1.08-20.91
	v-1.68l3.4,0.32C249.84,417.07,260.59,417.67,271.88,418.26z M336.73,421.77c13.08,0.76,24.1,1.35,24.48,1.35
	c0.49,0,0.65,7.19,0.65,34.1v34.15l-7.13-0.32c-3.94-0.22-14.91-0.54-24.37-0.7c-11.73-0.27-17.29-0.59-17.45-0.97
	c-0.11-0.32-0.81-13.73-1.57-29.78c-0.7-16.05-1.51-31.45-1.68-34.21l-0.32-4.97h1.78C312.14,420.42,323.65,421.02,336.73,421.77z
	 M397.52,425.07c14.43,0.76,26.26,1.46,26.37,1.57c0.22,0.22-0.76,65.6-1.03,65.87c-0.38,0.38-52.96-1.13-53.34-1.57
	c-0.22-0.22-0.43-15.4-0.54-33.83l-0.16-33.45h1.24C370.77,423.67,383.1,424.31,397.52,425.07z M462.53,428.64l23.62,1.24v1.35
	c0,2.49-2.22,62.96-2.32,63.01c-0.32,0.22-52.96-1.41-53.17-1.62c-0.16-0.11-0.05-15.02,0.16-33.02l0.38-32.8l3.84,0.27
	C437.13,427.23,449.51,427.93,462.53,428.64z M521.54,431.77c12.48,0.65,23.51,1.24,24.48,1.41c2.16,0.32,2.16-2.38,0.11,33.45
	c-0.86,15.46-1.62,28.26-1.62,28.48c0,0.27-3.24,0.43-7.24,0.43c-6.81,0-45.93-1.08-46.04-1.24c-0.05-0.11,2.32-63.82,2.43-64.04
	c0-0.05,1.19,0,2.65,0.16C497.71,430.53,509.06,431.18,521.54,431.77z M571.69,434.47c5.08,0.32,15.56,0.92,23.29,1.35
	c7.67,0.43,14.05,0.86,14.16,0.92c0.27,0.27-5.08,59.98-5.4,60.31c-0.32,0.27-51.12-0.92-51.66-1.24
	c-0.16-0.11,0.49-13.78,1.46-30.37c0.92-16.59,1.73-30.48,1.73-30.86C555.32,433.77,559.05,433.72,571.69,434.47z M645.24,438.53
	c13.02,0.7,23.83,1.46,23.99,1.62c0.38,0.32-6.11,57.98-6.54,58.47c-0.32,0.27-50.8-0.97-51.18-1.3c-0.22-0.22,0.11-4.05,3.35-40.85
	l1.73-19.29h2.43C620.38,437.17,632.16,437.77,645.24,438.53z M175.04,493.7c5.35,0.27,6.32,0.49,6.38,1.24
	c0,0.49,1.13,17.24,2.54,37.29c1.68,24.1,2.38,36.48,2,36.58c-0.32,0.16-8.32,0.16-17.83,0.11l-17.24-0.16l-0.38-2.16
	c-0.22-1.19-3.19-18.05-6.65-37.45c-3.46-19.4-6.27-35.5-6.27-35.83C137.6,492.73,160.13,492.94,175.04,493.7z M224.49,494.94
	c8.97,0.22,16.48,0.59,16.7,0.81c0.32,0.32,4.54,72.3,4.27,72.57c-0.22,0.22-51.23,0.22-51.45,0s-5.08-69.28-5.08-72.36v-2
	l9.62,0.27C203.79,494.4,215.47,494.73,224.49,494.94z M275.4,531.31c12.32,19.62,22.48,35.88,22.59,36.1
	c0.16,0.49-44.31,1.08-44.85,0.59c-0.27-0.27-4.22-67.44-4.22-71.55c0-0.7,0.43-0.92,2.05-0.92h2L275.4,531.31z M301.71,496.94
	c3.89,0.32,3.89,0.32,4.16,2c0.16,0.97,0.76,13.4,1.41,27.67c0.59,14.27,1.19,26.86,1.3,28.05c0.16,1.13,0.05,1.89-0.22,1.62
	c-0.32-0.38-34.37-54.42-37.5-59.55c-0.32-0.54,2.43-0.59,13.29-0.38C291.66,496.51,299.55,496.78,301.71,496.94z M345.27,498.02
	l16.59,0.38v28.42c0,15.62,0.16,31.13,0.38,34.42l0.32,6.05l-22.8,0.38c-12.54,0.22-22.91,0.32-23.02,0.16
	c-0.16-0.16-3.51-66.04-3.51-69.55V497l7.73,0.32C325.17,497.54,336.08,497.86,345.27,498.02z M409.3,499.64l13.73,0.38l-0.38,33.29
	c-0.22,18.32-0.49,33.4-0.59,33.5c-0.05,0.11-11.94,0.32-26.37,0.49l-26.26,0.27v-34.48v-34.48l13.13,0.32
	C389.74,499.16,401.79,499.48,409.3,499.64z M472.8,501.27l10.65,0.38v4.11c0,2.27-0.49,16.75-1.08,32.21
	c-0.59,15.46-1.08,28.26-1.08,28.48c0,0.27-11.67,0.43-25.94,0.43h-25.94l0.27-25.56c0.16-14,0.43-29.02,0.59-33.29l0.32-7.78
	l15.78,0.38C455.02,500.78,466.91,501.1,472.8,501.27z M524.62,502.62c10.48,0.32,19.13,0.65,19.24,0.76
	c0.22,0.22-3.13,61.33-3.4,62.25c-0.22,0.54-5.84,0.7-25.94,0.7h-25.67v-3.67c0-4.76,1.51-47.99,1.95-55.12l0.32-5.51h7.19
	C502.31,502.02,514.14,502.29,524.62,502.62z M575.58,503.91c9.24,0.16,19.24,0.43,22.32,0.59l5.57,0.32l-0.27,2
	c-0.16,1.08-1.41,14.7-2.81,30.32c-1.35,15.62-2.49,28.42-2.54,28.42c-0.05,0.05-11.35,0.22-25.13,0.32l-25.02,0.22l0.32-4.32
	c0.32-4.97,2.27-39.5,2.7-48.96c0.16-3.4,0.43-7.03,0.59-8l0.27-1.84l3.62,0.32C557.21,503.48,566.4,503.75,575.58,503.91z
	 M646.48,505.7c8.05,0.22,14.86,0.54,15.08,0.81c0.38,0.38-5.94,58.04-6.43,58.52c-0.11,0.11-11.4,0.38-25.13,0.59l-24.91,0.32
	l0.27-2.11c0.16-1.13,1.08-11.83,2.11-23.72c1.08-11.89,2.16-24.16,2.43-27.29c0.32-3.13,0.54-6.21,0.54-6.92v-1.19l10.7,0.32
	C626.97,505.21,638.38,505.53,646.48,505.7z"/>
</svg>
